# xmcd CD database file
#
# Track frame offsets:
#	150
#	2419
#	18069
#	34901
#	52374
#	73640
#	83053
#	102640
#	115529
#	132811
#	150969
#	172029
#	198363
#	221891
#	239201
#	278621
#	298376
#
# Disc length: 4417 seconds
#
# Revision: 1
# Processed by: cddbd v1.5.1PL0 Copyright (c) Steve Scherf et al.
# Submitted via: CDex 1.51
#
DISCID=f5113f11
DTITLE=Chevelle - 2003-12-17-House Of Blues-Chicago, IL
DYEAR=2003
DGENRE=Techno
TTITLE0=Intro
TTITLE1=Comfortable Liar
TTITLE2=Don't Fake This
TTITLE3=The Red
TTITLE4=Unknown
TTITLE5=Open
TTITLE6=Point #1
TTITLE7=Mia
TTITLE8=Prove To You
TTITLE9=Family System
TTITLE10=Forfeit
TTITLE11=Grab Thy Hand
TTITLE12=Closure
TTITLE13=Until You're Reformed
TTITLE14=An Evening With El Diablo
TTITLE15=Send The Pain Below
TTITLE16=Wonder What's Next
EXTD=YEAR: 2003
EXTT0=
EXTT1=
EXTT2=
EXTT3=
EXTT4=
EXTT5=
EXTT6=
EXTT7=
EXTT8=
EXTT9=
EXTT10=
EXTT11=
EXTT12=
EXTT13=
EXTT14=
EXTT15=
EXTT16=
PLAYORDER=
